name Walk8.mot
datacolumns 19
datarows 22
range 2.69100000 2.71200000
endheader

                time	   L_ground_force_vx	   L_ground_force_vy	   L_ground_force_vz	   L_ground_force_px	   L_ground_force_py	   L_ground_force_pz	   R_ground_force_vx	   R_ground_force_vy	   R_ground_force_vz	   R_ground_force_px	   R_ground_force_py	   R_ground_force_pz	   L_ground_torque_x	   L_ground_torque_y	   L_ground_torque_z	   R_ground_torque_x	   R_ground_torque_y	   R_ground_torque_z	
          2.69100000	         -0.00000000	          0.00000000	         -0.00000000	         -0.00000000	          0.00000000	         -0.00000000	         11.09948505	         34.92369827	          9.75348125	          0.41139559	          0.00000000	          0.09451554	          0.00000000	          0.00000000	          0.00000000	          0.00000000	         -1.74588467	          0.00000000	
          2.69200000	         -0.00000000	          0.00000000	         -0.00000000	         -0.00000000	          0.00000000	         -0.00000000	         10.26599426	         31.63862827	          9.24649226	          0.39592157	          0.00000000	          0.09099373	          0.00000000	          0.00000000	          0.00000000	          0.00000000	         -1.59396786	          0.00000000	
          2.69300000	         -0.00000000	          0.00000000	         -0.00000000	         -0.00000000	          0.00000000	         -0.00000000	          9.46471730	         28.51416530	          8.74785909	          0.38030119	          0.00000000	          0.08743557	          0.00000000	         -0.00000000	          0.00000000	          0.00000000	         -1.44895378	          0.00000000	
          2.69400000	         -0.00000000	          0.00000000	         -0.00000000	         -0.00000000	          0.00000000	         -0.00000000	          8.69585899	         25.54795427	          8.25864245	          0.36458678	          0.00000000	          0.08385307	          0.00000000	         -0.00000000	          0.00000000	          0.00000000	         -1.31079758	          0.00000000	
          2.69500000	         -0.00000000	          0.00000000	         -0.00000000	         -0.00000000	          0.00000000	         -0.00000000	          7.95952784	         22.73749889	          7.77983481	          0.34883521	          0.00000000	          0.08025936	          0.00000000	         -0.00000000	          0.00000000	          0.00000000	         -1.17943567	          0.00000000	
          2.69600000	         -0.00000000	          0.00000000	         -0.00000000	         -0.00000000	          0.00000000	         -0.00000000	          7.25572749	         20.08009353	          7.31234210	          0.33310537	          0.00000000	          0.07666807	          0.00000000	         -0.00000000	          0.00000000	          0.00000000	         -1.05478599	          0.00000000	
          2.69700000	         -0.00000000	          0.00000000	         -0.00000000	         -0.00000000	          0.00000000	         -0.00000000	          6.58434948	         17.57275385	          6.85696593	          0.31745423	          0.00000000	          0.07309241	          0.00000000	         -0.00000000	          0.00000000	          0.00000000	         -0.93674875	          0.00000000	
          2.69800000	         -0.00000000	          0.00000000	         -0.00000000	         -0.00000000	          0.00000000	         -0.00000000	          5.94517409	         15.21219528	          6.41439686	          0.30193422	          0.00000000	          0.06954458	          0.00000000	         -0.00000000	          0.00000000	          0.00000000	         -0.82520777	          0.00000000	
          2.69900000	         -0.00000000	          0.00000000	         -0.00000000	         -0.00000000	          0.00000000	         -0.00000000	          5.33787863	         12.99485788	          5.98521835	          0.28659285	          0.00000000	          0.06603560	          0.00000000	         -0.00000000	          0.00000000	          0.00000000	         -0.72003221	          0.00000000	
          2.70000000	         -0.00000000	         -0.00000000	         -0.00000000	         -0.00000000	          0.00000000	         -0.00000000	          4.76204736	         10.91694320	          5.56991363	          0.27147290	          0.00000000	          0.06257544	          0.00000000	         -0.00000000	          0.00000000	          0.00000000	         -0.62107828	          0.00000000	
          2.70100000	         -0.00000000	         -0.00000000	         -0.00000000	         -0.00000000	          0.00000000	         -0.00000000	          4.21718099	          8.97444889	          5.16887243	          0.25661268	          0.00000000	          0.05917302	          0.00000000	         -0.00000000	          0.00000000	          0.00000000	         -0.52819091	          0.00000000	
          2.70200000	         -0.00000000	         -0.00000000	         -0.00000000	         -0.00000000	          0.00000000	         -0.00000000	          3.70270568	          7.16320119	          4.78239747	          0.24204626	          0.00000000	          0.05583628	          0.00000000	         -0.00000000	          0.00000000	          0.00000000	         -0.44120530	          0.00000000	
          2.70300000	         -0.00000000	         -0.00000000	         -0.00000000	         -0.00000000	          0.00000000	         -0.00000000	          3.21798155	          5.47888523	          4.41071065	          0.22780370	          0.00000000	          0.05257225	          0.00000000	         -0.00000000	          0.00000000	          0.00000000	         -0.35994836	          0.00000000	
          2.70400000	         -0.00000000	         -0.00000000	         -0.00000000	         -0.00000000	          0.00000000	         -0.00000000	          2.76231067	          3.91707341	          4.05395914	          0.21391128	          0.00000000	          0.04938709	          0.00000000	         -0.00000000	          0.00000000	          0.00000000	         -0.28424006	          0.00000000	
          2.70500000	         -0.00000000	         -0.00000000	          0.00000000	         -0.00000000	          0.00000000	         -0.00000000	          2.33494470	          2.47325162	          3.71222116	          0.20039173	          0.00000000	          0.04628612	          0.00000000	         -0.00000000	          0.00000000	          0.00000000	         -0.21389472	          0.00000000	
          2.70600000	         -0.00000000	         -0.00000000	          0.00000000	         -0.00000000	          0.00000000	         -0.00000000	          1.93509196	          1.14284373	          3.38551155	          0.18726444	          0.00000000	          0.04327391	          0.00000000	         -0.00000000	          0.00000000	          0.00000000	         -0.14872217	          0.00000000	
          2.70700000	         -0.00000000	         -0.00000000	          0.00000000	         -0.00000000	          0.00000000	         -0.00000000	          1.56192409	         -0.07876588	          3.07378709	          0.17454566	          0.00000000	          0.04035428	          0.00000000	         -0.00000000	          0.00000000	          0.00000000	         -0.08852888	          0.00000000	
          2.70800000	         -0.00000000	         -0.00000000	          0.00000000	         -0.00000000	          0.00000000	         -0.00000000	          1.21458237	         -1.19621152	          2.77695161	          0.16224871	          0.00000000	          0.03753040	          0.00000000	         -0.00000000	          0.00000000	          0.00000000	         -0.03311894	          0.00000000	
          2.70900000	         -0.00000000	         -0.00000000	          0.00000000	         -0.00000000	          0.00000000	         -0.00000000	          0.89218346	         -2.21412706	          2.49486087	          0.15038420	          0.00000000	          0.03480480	          0.00000000	         -0.00000000	          0.00000000	          0.00000000	          0.01770496	          0.00000000	
          2.71000000	         -0.00000000	         -0.00000000	          0.00000000	         -0.00000000	          0.00000000	         -0.00000000	          0.59382489	         -3.13712852	          2.22732716	          0.13896019	          0.00000000	          0.03217943	          0.00000000	         -0.00000000	          0.00000000	          0.00000000	          0.06414070	          0.00000000	
          2.71100000	         -0.00000000	         -0.00000000	          0.00000000	         -0.00000000	          0.00000000	         -0.00000000	          0.31859009	         -3.96979807	          1.97412373	          0.12798241	          0.00000000	          0.02965568	          0.00000000	         -0.00000000	          0.00000000	          0.00000000	          0.10638591	          0.00000000	
          2.71200000	         -0.00000000	         -0.00000000	          0.00000000	         -0.00000000	          0.00000000	         -0.00000000	          0.06555302	         -4.71666964	          1.73498896	          0.11745438	          0.00000000	          0.02723444	          0.00000000	         -0.00000000	          0.00000000	          0.00000000	          0.14463724	          0.00000000	
